<svg xmlns="http://www.w3.org/2000/svg" width="160" height="160" viewBox="0 0 160 160" role="img" aria-label="哈兰德卡通头像">
  <rect width="160" height="160" rx="28" fill="#eef8f4"/>
  <circle cx="80" cy="60" r="37" fill="#f0d0ad"/>
  <path d="M47 48c6-24 28-35 59-25 3 13-3 25-18 36-11-10-25-14-41-11z" fill="#d5a13a"/>
  <circle cx="66" cy="66" r="4" fill="#10231d"/><circle cx="94" cy="66" r="4" fill="#10231d"/>
  <path d="M68 82c9 7 18 7 25 0" fill="none" stroke="#8c513c" stroke-width="5" stroke-linecap="round"/>
  <path d="M39 115c8-22 24-34 41-34s33 12 41 34v25H39z" fill="#7bd4ff"/>
  <path d="M56 86l24 24 24-24" fill="none" stroke="#ffffff" stroke-width="8" stroke-linecap="round"/>
  <text x="80" y="135" text-anchor="middle" font-family="Arial, sans-serif" font-size="28" font-weight="900" fill="#0b3a4a">9</text>
</svg>
