<svg xmlns="http://www.w3.org/2000/svg" width="160" height="160" viewBox="0 0 160 160" role="img" aria-label="梅西卡通头像">
  <rect width="160" height="160" rx="28" fill="#e9f6ee"/>
  <circle cx="80" cy="60" r="37" fill="#efc79f"/>
  <path d="M44 55c4-24 22-38 47-34 18 3 29 13 33 31-24-12-51-12-80 3z" fill="#2a1c14"/>
  <circle cx="66" cy="65" r="4" fill="#173126"/><circle cx="94" cy="65" r="4" fill="#173126"/>
  <path d="M68 81c8 8 17 8 25 0" fill="none" stroke="#8a4b36" stroke-width="5" stroke-linecap="round"/>
  <path d="M39 115c8-22 24-34 41-34s33 12 41 34v25H39z" fill="#1b75bb"/>
  <path d="M56 86l24 24 24-24" fill="none" stroke="#ffffff" stroke-width="8" stroke-linecap="round"/>
  <text x="80" y="135" text-anchor="middle" font-family="Arial, sans-serif" font-size="28" font-weight="900" fill="#ffffff">10</text>
</svg>
