<svg xmlns="http://www.w3.org/2000/svg" width="160" height="160" viewBox="0 0 160 160" role="img" aria-label="孙兴慜卡通头像">
  <rect width="160" height="160" rx="28" fill="#eff7f2"/>
  <circle cx="80" cy="60" r="37" fill="#e0b48d"/>
  <path d="M45 48c9-22 35-31 65-16 0 10-5 18-14 24-16-10-33-13-51-8z" fill="#251811"/>
  <circle cx="66" cy="66" r="4" fill="#10231d"/><circle cx="94" cy="66" r="4" fill="#10231d"/>
  <path d="M68 82c9 7 18 7 25 0" fill="none" stroke="#8a4b36" stroke-width="5" stroke-linecap="round"/>
  <path d="M39 115c8-22 24-34 41-34s33 12 41 34v25H39z" fill="#d33a2c"/>
  <path d="M56 86l24 24 24-24" fill="none" stroke="#ffffff" stroke-width="8" stroke-linecap="round"/>
  <text x="80" y="135" text-anchor="middle" font-family="Arial, sans-serif" font-size="28" font-weight="900" fill="#ffffff">7</text>
</svg>
